#!OML:ASF X:\für Bonn\!DataBase\2005_08_12_Daniel\c3d\Daniel.ASF
:FULLY-SPECIFIED
:DEGREES
98
root 11.7726 7.30187 -1.64161 -738.086 -67.9821 -24.1952
lowerback 77.1308 4.51581 -1.68566
upperback 13.4013 -2.33552 -7.03053
thorax -5.8834 -2.15271 -6.4191
lowerneck 4.09308 2.21713 -7.75579
upperneck 7.35199 2.60232 -0.261376
head 1.51591 1.0256 1.22078
rclavicle -1.59028e-014 -1.01778e-013
rhumerus -19.035 11.8081 -81.1516
rradius 36.9075
rwrist 9.97929
rhand -13.6663 -343.26
rfingers 7.12502
rthumb 12.4509 -372.869
lclavicle -1.59028e-014 -1.01778e-013
lhumerus -373.2 41.6171 -306.103
lradius 20.8023
lwrist -31.5082
lhand -29.2278 349.136
lfingers 7.12502
lthumb -2.57174 379.1
rfemur 175.623 33.866 94.941
rtibia 214.651
rfoot 144.316 94.7689
rtoes 25.5989
lfemur -73.9689 27.5555 -0.946551
ltibia 136.488
lfoot -19.2382 -34.0049
ltoes -0.00207741
99
root 11.7662 7.19959 -1.60451 -737.79 -68.1255 -25.1753
lowerback 77.2452 4.55551 -1.60216
upperback 13.431 -2.28744 -7.07678
thorax -5.83788 -2.14225 -6.53032
lowerneck 4.10318 2.12102 -7.86927
upperneck 7.49449 2.46346 -0.059817
head 1.56265 0.951797 1.3074
rclavicle 6.36111e-015 7.95139e-014
rhumerus -19.185 11.623 -81.4171
rradius 36.3572
rwrist 10.3546
rhand -13.7685 -343.259
rfingers 7.12502
rthumb 12.3523 -372.874
lclavicle 6.36111e-015 7.95139e-014
lhumerus -373.964 43.2332 -307.032
lradius 20.3256
lwrist -33.1181
lhand -30.1538 349.287
lfingers 7.12502
lthumb -3.466 379.239
rfemur 175.925 33.1562 93.6063
rtibia 214.154
rfoot 149.906 95.5945
rtoes 25.714
lfemur -74.1207 29.0877 -0.259106
ltibia 137.326
lfoot -19.4317 -34.7166
ltoes -0.0390845
100
root 11.7609 7.10008 -1.56813 -737.486 -68.269 -26.1679
lowerback 77.3171 4.58867 -1.5035
upperback 13.4874 -2.23635 -7.14892
thorax -5.76866 -2.12768 -6.67839
lowerneck 4.21751 2.03162 -7.88486
upperneck 7.5686 2.32624 0.10609
head 1.57083 0.883252 1.36345
rclavicle 1.27222e-014 -1.145e-013
rhumerus -19.3236 11.401 -81.7105
rradius 35.747
rwrist 10.8639
rhand -13.8558 -343.249
rfingers 7.12502
rthumb 12.2681 -372.869
lclavicle 1.27222e-014 -1.145e-013
lhumerus -374.757 44.7371 -308.022
lradius 19.9131
lwrist -34.6817
lhand -31.1239 349.645
lfingers 7.12502
lthumb -4.40276 379.579
rfemur 176.29 32.4718 92.3951
rtibia 213.691
rfoot 154.028 96.402
rtoes 25.8124
lfemur -74.2255 30.6403 0.447845
ltibia 138.131
lfoot -19.6805 -35.4007
ltoes 0.026891
101
root 11.7568 7.00529 -1.53309 -737.091 -68.4227 -27.2462
lowerback 77.3402 4.66683 -1.43371
upperback 13.5496 -2.14711 -7.17284
thorax -5.6877 -2.10355 -6.77305
lowerneck 4.40052 1.95295 -7.98456
upperneck 7.57641 2.19128 0.307754
head 1.54539 0.816212 1.44434
rclavicle -4.45278e-014 2.54444e-014
rhumerus -19.4689 11.2677 -81.9693
rradius 35.1522
rwrist 11.391
rhand -13.9272 -343.306
rfingers 7.12502
rthumb 12.1993 -372.93
lclavicle -4.45278e-014 2.54444e-014
lhumerus -375.638 46.2359 -309.042
lradius 19.5394
lwrist -36.2426
lhand -32.0866 350.129
lfingers 7.12502
lthumb -5.33233 380.042
rfemur 176.731 31.8518 91.4069
rtibia 213.267
rfoot 156.085 97.195
rtoes 25.9232
lfemur -74.3106 32.2619 1.23823
ltibia 138.901
lfoot -19.9348 -36.1268
ltoes 0.00811861
102
root 11.7528 6.91236 -1.49985 -736.697 -68.561 -28.3342
lowerback 77.3273 4.75769 -1.37402
upperback 13.6319 -2.05023 -7.20046
thorax -5.58622 -2.07666 -6.87056
lowerneck 4.58441 1.86302 -7.97337
upperneck 7.61216 2.04858 0.423762
head 1.53071 0.745769 1.47871
rclavicle -2.54444e-014 5.40694e-014
rhumerus -19.5906 11.1041 -82.2642
rradius 34.5139
rwrist 11.9401
rhand -13.9002 -343.357
rfingers 7.12502
rthumb 12.2253 -372.98
lclavicle -2.54444e-014 5.40694e-014
lhumerus -376.571 47.699 -310.143
lradius 19.2114
lwrist -37.7721
lhand -33.0217 350.716
lfingers 7.12502
lthumb -6.23518 380.604
rfemur 177.131 31.2286 90.3542
rtibia 212.862
rfoot 158.706 98.0157
rtoes 25.9271
lfemur -74.3432 33.9204 2.05711
ltibia 139.636
lfoot -20.2438 -36.8685
ltoes -0.0652863
103
root 11.7505 6.82358 -1.46666 -736.253 -68.6967 -29.468
lowerback 77.2854 4.84548 -1.31259
upperback 13.7167 -1.94897 -7.21664
thorax -5.48355 -2.04885 -6.95602
lowerneck 4.80282 1.78233 -8.05951
upperneck 7.61097 1.90827 0.603573
head 1.49754 0.675876 1.55043
rclavicle 2.54444e-014 -1.59028e-014
rhumerus -19.7252 11.0262 -82.5651
rradius 33.8803
rwrist 12.4601
rhand -13.8991 -343.482
rfingers 7.12502
rthumb 12.2264 -373.104
lclavicle 2.54444e-014 -1.59028e-014
lhumerus -377.579 49.0635 -311.27
lradius 18.9201
lwrist -39.1746
lhand -33.9396 351.307
lfingers 7.12502
lthumb -7.12128 381.167
rfemur 177.549 30.658 89.4554
rtibia 212.506
rfoot 160.24 98.7674
rtoes 26.0197
lfemur -74.3443 35.522 2.91946
ltibia 140.335
lfoot -20.542 -37.5988
ltoes -0.137535
104
root 11.7501 6.73585 -1.43458 -735.747 -68.8217 -30.6851
lowerback 77.2764 4.91866 -1.24772
upperback 13.7835 -1.86152 -7.22194
thorax -5.39879 -2.02841 -7.02466
lowerneck 4.97875 1.71697 -8.1769
upperneck 7.63646 1.79192 0.759308
head 1.4796 0.615447 1.62089
rclavicle 6.36111e-014 3.18055e-015
rhumerus -19.8111 10.9691 -82.8478
rradius 33.2059
rwrist 12.9893
rhand -13.7632 -343.596
rfingers 7.12502
rthumb 12.3575 -373.211
lclavicle 6.36111e-014 3.18055e-015
lhumerus -378.728 50.6366 -312.561
lradius 18.6049
lwrist -40.8179
lhand -34.8612 351.738
lfingers 7.12502
lthumb -8.0108 381.566
rfemur 177.981 30.0888 88.5885
rtibia 212.16
rfoot 161.467 99.5206
rtoes 26.1304
lfemur -74.3063 37.1239 3.83681
ltibia 141.011
lfoot -20.89 -38.3084
ltoes -0.197767
105
root 11.7512 6.65208 -1.40331 -735.202 -68.9693 -31.9196
lowerback 77.2505 4.99989 -1.17013
upperback 13.8534 -1.75815 -7.24361
thorax -5.3124 -1.99819 -7.12396
lowerneck 5.07257 1.64259 -8.34932
upperneck 7.69383 1.66656 1.00406
head 1.4861 0.549695 1.73211
rclavicle -1.59028e-014 7.63333e-014
rhumerus -19.8517 10.8553 -83.167
rradius 32.4886
rwrist 13.5289
rhand -13.6621 -343.758
rfingers 7.12502
rthumb 12.4549 -373.367
lclavicle -1.59028e-014 7.63333e-014
lhumerus -379.896 52.0343 -313.865
lradius 18.3207
lwrist -42.3581
lhand -35.7771 351.977
lfingers 7.12502
lthumb -8.89469 381.77
rfemur 178.475 29.605 87.9094
rtibia 211.867
rfoot 161.155 100.298
rtoes 26.3495
lfemur -74.2308 38.7281 4.77582
ltibia 141.657
lfoot -21.3626 -38.9295
ltoes -0.326441
106
root 11.7544 6.57034 -1.37258 -734.621 -69.0868 -33.2165
lowerback 77.264 5.04092 -1.07413
upperback 13.9024 -1.6861 -7.2741
thorax -5.25107 -1.97944 -7.22829
lowerneck 5.19681 1.57849 -8.50375
upperneck 7.74785 1.55367 1.19605
head 1.48658 0.489475 1.82287
rclavicle -5.08889e-014 -3.18055e-015
rhumerus -19.8932 10.8205 -83.4941
rradius 31.776
rwrist 13.9818
rhand -13.4705 -343.915
rfingers 7.12502
rthumb 12.6396 -373.513
lclavicle -5.08889e-014 -3.18055e-015
lhumerus -381.279 53.5779 -315.422
lradius 18.014
lwrist -44.1721
lhand -36.6689 351.94
lfingers 7.12502
lthumb -9.75525 381.694
rfemur 178.98 29.1178 87.3262
rtibia 211.607
rfoot 160.33 101.08
rtoes 26.5553
lfemur -74.1276 40.1893 5.74994
ltibia 142.275
lfoot -21.7737 -39.5267
ltoes -0.451901
107
root 11.7593 6.49118 -1.34221 -733.974 -69.2205 -34.5712
lowerback 77.2539 5.08833 -0.974192
upperback 13.9613 -1.60294 -7.3001
thorax -5.17907 -1.9568 -7.33294
lowerneck 5.19291 1.51176 -8.71759
upperneck 7.86954 1.44655 1.42862
head 1.53089 0.429339 1.94018
rclavicle 2.54444e-014 -6.36111e-014
rhumerus -19.8893 10.7841 -83.8273
rradius 31.0266
rwrist 14.4468
rhand -13.2931 -344.1
rfingers 7.12502
rthumb 12.8106 -373.687
lclavicle 2.54444e-014 -6.36111e-014
lhumerus -382.84 55.2799 -317.162
lradius 17.6952
lwrist -46.2782
lhand -37.5504 351.635
lfingers 7.12502
lthumb -10.6056 381.347
rfemur 179.507 28.6954 86.892
rtibia 211.387
rfoot 158.489 101.873
rtoes 26.92
lfemur -73.9427 41.7158 6.84074
ltibia 142.875
lfoot -22.2566 -40.1904
ltoes -0.549262
108
root 11.766 6.41519 -1.31311 -733.284 -69.3369 -35.9667
lowerback 77.2696 5.14069 -0.884542
upperback 13.9811 -1.5163 -7.30263
thorax -5.14688 -1.93387 -7.40735
lowerneck 5.26155 1.45374 -8.96149
upperneck 7.95388 1.34141 1.65929
head 1.5512 0.369999 2.06182
rclavicle 0 5.40694e-014
rhumerus -19.9713 10.7864 -84.1452
rradius 30.3569
rwrist 14.8707
rhand -13.0372 -344.325
rfingers 7.12502
rthumb 13.0574 -373.896
lclavicle 0 5.40694e-014
lhumerus -384.586 56.6348 -319
lradius 17.4397
lwrist -48.1985
lhand -38.408 351.133
lfingers 7.12502
lthumb -11.4327 380.801
rfemur 180.068 28.2981 86.6307
rtibia 211.197
rfoot 156.408 102.672
rtoes 27.2823
lfemur -73.717 43.1882 7.96476
ltibia 143.451
lfoot -22.8784 -40.782
ltoes -0.731307
109
root 11.7737 6.34067 -1.28428 -732.478 -69.457 -37.4764
lowerback 77.2482 5.15264 -0.765716
upperback 14.0259 -1.4558 -7.34535
thorax -5.0974 -1.91805 -7.52874
lowerneck 5.20456 1.40349 -9.18263
upperneck 8.09685 1.26048 1.89613
head 1.6115 0.322067 2.18373
rclavicle 6.04305e-014 3.18055e-015
rhumerus -20.0186 10.7017 -84.5146
rradius 29.6675
rwrist 15.3644
rhand -12.7681 -344.438
rfingers 7.12502
rthumb 13.3167 -373.992
lclavicle 6.04305e-014 3.18055e-015
lhumerus -386.518 57.9893 -321.056
lradius 17.2176
lwrist -50.2365
lhand -39.2853 350.374
lfingers 7.12502
lthumb -12.2787 379.994
rfemur 180.618 27.9381 86.4807
rtibia 211.025
rfoot 154.545 103.428
rtoes 27.6672
lfemur -73.4482 44.7328 9.20891
ltibia 144.032
lfoot -23.5375 -41.4048
ltoes -0.870552
